<mxfile host="app.diagrams.net" modified="2024-03-08T13:41:46.272Z" agent="Mozilla/5.0 (Windows NT 10.0; Win64; x64) AppleWebKit/537.36 (KHTML, like Gecko) Chrome/122.0.0.0 Safari/537.36" etag="aFS7VoZZ5MPUF4elbZZY" version="23.1.4" type="device" pages="4">
  <diagram name="Página-1" id="1u4D2rObs5S_MhdcJgxs">
    <mxGraphModel dx="1050" dy="565" grid="1" gridSize="10" guides="1" tooltips="1" connect="1" arrows="1" fold="1" page="1" pageScale="1" pageWidth="827" pageHeight="1169" math="0" shadow="0">
      <root>
        <mxCell id="0" />
        <mxCell id="1" parent="0" />
        <mxCell id="lGKUcpYkMTIYotTmjia--1" value="Diagram Heading" style="shape=umlFrame;whiteSpace=wrap;html=1;pointerEvents=0;recursiveResize=0;container=1;collapsible=0;width=160;align=center;" vertex="1" parent="1">
          <mxGeometry x="244" y="160" width="416" height="320" as="geometry" />
        </mxCell>
        <mxCell id="lGKUcpYkMTIYotTmjia--8" style="edgeStyle=orthogonalEdgeStyle;rounded=0;orthogonalLoop=1;jettySize=auto;html=1;" edge="1" parent="lGKUcpYkMTIYotTmjia--1" source="lGKUcpYkMTIYotTmjia--3">
          <mxGeometry relative="1" as="geometry">
            <mxPoint x="-74" y="125" as="targetPoint" />
          </mxGeometry>
        </mxCell>
        <mxCell id="lGKUcpYkMTIYotTmjia--3" value="consultar livro" style="ellipse;html=1;whiteSpace=wrap;strokeColor=default;" vertex="1" parent="lGKUcpYkMTIYotTmjia--1">
          <mxGeometry x="91" y="105" width="79" height="40" as="geometry" />
        </mxCell>
        <mxCell id="lGKUcpYkMTIYotTmjia--16" style="edgeStyle=orthogonalEdgeStyle;rounded=0;orthogonalLoop=1;jettySize=auto;html=1;" edge="1" parent="lGKUcpYkMTIYotTmjia--1" source="lGKUcpYkMTIYotTmjia--15">
          <mxGeometry relative="1" as="geometry">
            <mxPoint x="-64" y="160" as="targetPoint" />
          </mxGeometry>
        </mxCell>
        <mxCell id="lGKUcpYkMTIYotTmjia--21" style="edgeStyle=orthogonalEdgeStyle;rounded=0;orthogonalLoop=1;jettySize=auto;html=1;entryX=0;entryY=1;entryDx=0;entryDy=0;" edge="1" parent="lGKUcpYkMTIYotTmjia--1" source="lGKUcpYkMTIYotTmjia--15" target="lGKUcpYkMTIYotTmjia--17">
          <mxGeometry relative="1" as="geometry" />
        </mxCell>
        <mxCell id="lGKUcpYkMTIYotTmjia--23" value="include" style="edgeLabel;html=1;align=center;verticalAlign=middle;resizable=0;points=[];" vertex="1" connectable="0" parent="lGKUcpYkMTIYotTmjia--21">
          <mxGeometry x="-0.2903" y="2" relative="1" as="geometry">
            <mxPoint as="offset" />
          </mxGeometry>
        </mxCell>
        <mxCell id="lGKUcpYkMTIYotTmjia--15" value="reservar livro" style="ellipse;html=1;whiteSpace=wrap;" vertex="1" parent="lGKUcpYkMTIYotTmjia--1">
          <mxGeometry x="85.5" y="170" width="90" height="40" as="geometry" />
        </mxCell>
        <mxCell id="lGKUcpYkMTIYotTmjia--17" value="emitir comprovante" style="ellipse;html=1;whiteSpace=wrap;" vertex="1" parent="lGKUcpYkMTIYotTmjia--1">
          <mxGeometry x="216" y="140" width="94" height="40" as="geometry" />
        </mxCell>
        <mxCell id="lGKUcpYkMTIYotTmjia--19" style="edgeStyle=orthogonalEdgeStyle;rounded=0;orthogonalLoop=1;jettySize=auto;html=1;" edge="1" parent="lGKUcpYkMTIYotTmjia--1" source="lGKUcpYkMTIYotTmjia--18" target="lGKUcpYkMTIYotTmjia--15">
          <mxGeometry relative="1" as="geometry" />
        </mxCell>
        <mxCell id="lGKUcpYkMTIYotTmjia--22" value="extend" style="edgeLabel;html=1;align=center;verticalAlign=middle;resizable=0;points=[];" vertex="1" connectable="0" parent="lGKUcpYkMTIYotTmjia--19">
          <mxGeometry x="-0.392" y="-2" relative="1" as="geometry">
            <mxPoint as="offset" />
          </mxGeometry>
        </mxCell>
        <mxCell id="lGKUcpYkMTIYotTmjia--18" value="cadastrar aluno" style="ellipse;html=1;whiteSpace=wrap;" vertex="1" parent="lGKUcpYkMTIYotTmjia--1">
          <mxGeometry x="213" y="220" width="100" height="40" as="geometry" />
        </mxCell>
        <mxCell id="lGKUcpYkMTIYotTmjia--2" value="aluno" style="shape=umlActor;verticalLabelPosition=bottom;verticalAlign=top;html=1;" vertex="1" parent="1">
          <mxGeometry x="120" y="240" width="30" height="60" as="geometry" />
        </mxCell>
        <mxCell id="lGKUcpYkMTIYotTmjia--14" style="edgeStyle=orthogonalEdgeStyle;rounded=0;orthogonalLoop=1;jettySize=auto;html=1;" edge="1" parent="1" source="lGKUcpYkMTIYotTmjia--9">
          <mxGeometry relative="1" as="geometry">
            <mxPoint x="135" y="330" as="targetPoint" />
          </mxGeometry>
        </mxCell>
        <mxCell id="lGKUcpYkMTIYotTmjia--9" value="professor" style="shape=umlActor;verticalLabelPosition=bottom;verticalAlign=top;html=1;" vertex="1" parent="1">
          <mxGeometry x="120" y="450" width="30" height="60" as="geometry" />
        </mxCell>
      </root>
    </mxGraphModel>
  </diagram>
  <diagram id="IhUvsFn29CbvdGKILYBq" name="Página-2">
    <mxGraphModel dx="1050" dy="565" grid="1" gridSize="10" guides="1" tooltips="1" connect="1" arrows="1" fold="1" page="1" pageScale="1" pageWidth="827" pageHeight="1169" math="0" shadow="0">
      <root>
        <mxCell id="0" />
        <mxCell id="1" parent="0" />
        <mxCell id="kz_fisih0gHzWFzimF2A-1" value="aluno" style="shape=umlActor;verticalLabelPosition=bottom;verticalAlign=top;html=1;" vertex="1" parent="1">
          <mxGeometry x="100" y="210" width="30" height="60" as="geometry" />
        </mxCell>
        <mxCell id="kz_fisih0gHzWFzimF2A-2" value="bibliotecário" style="shape=umlActor;verticalLabelPosition=bottom;verticalAlign=top;html=1;" vertex="1" parent="1">
          <mxGeometry x="30" y="320" width="30" height="60" as="geometry" />
        </mxCell>
        <mxCell id="kz_fisih0gHzWFzimF2A-3" value="Diagram Heading" style="shape=umlFrame;whiteSpace=wrap;html=1;pointerEvents=0;recursiveResize=0;container=1;collapsible=0;width=160;" vertex="1" parent="1">
          <mxGeometry x="240" y="120" width="440" height="330" as="geometry" />
        </mxCell>
        <mxCell id="kz_fisih0gHzWFzimF2A-13" style="edgeStyle=orthogonalEdgeStyle;rounded=0;orthogonalLoop=1;jettySize=auto;html=1;" edge="1" parent="kz_fisih0gHzWFzimF2A-3" source="kz_fisih0gHzWFzimF2A-5">
          <mxGeometry relative="1" as="geometry">
            <mxPoint x="-90" y="95" as="targetPoint" />
          </mxGeometry>
        </mxCell>
        <mxCell id="kz_fisih0gHzWFzimF2A-5" value="empréstimo de livros" style="ellipse;html=1;whiteSpace=wrap;" vertex="1" parent="kz_fisih0gHzWFzimF2A-3">
          <mxGeometry x="140" y="70" width="100" height="50" as="geometry" />
        </mxCell>
        <mxCell id="kz_fisih0gHzWFzimF2A-15" style="edgeStyle=orthogonalEdgeStyle;rounded=0;orthogonalLoop=1;jettySize=auto;html=1;" edge="1" parent="kz_fisih0gHzWFzimF2A-3" source="kz_fisih0gHzWFzimF2A-8">
          <mxGeometry relative="1" as="geometry">
            <mxPoint x="-90" y="160" as="targetPoint" />
          </mxGeometry>
        </mxCell>
        <mxCell id="kz_fisih0gHzWFzimF2A-8" value="devolução" style="ellipse;html=1;whiteSpace=wrap;" vertex="1" parent="kz_fisih0gHzWFzimF2A-3">
          <mxGeometry x="270" y="110" width="110" height="50" as="geometry" />
        </mxCell>
        <mxCell id="kz_fisih0gHzWFzimF2A-18" style="edgeStyle=orthogonalEdgeStyle;rounded=0;orthogonalLoop=1;jettySize=auto;html=1;" edge="1" parent="kz_fisih0gHzWFzimF2A-3" source="kz_fisih0gHzWFzimF2A-9">
          <mxGeometry relative="1" as="geometry">
            <mxPoint x="-90" y="220" as="targetPoint" />
          </mxGeometry>
        </mxCell>
        <mxCell id="kz_fisih0gHzWFzimF2A-9" value="pesquisa de livros" style="ellipse;html=1;whiteSpace=wrap;" vertex="1" parent="kz_fisih0gHzWFzimF2A-3">
          <mxGeometry x="160" y="170" width="100" height="50" as="geometry" />
        </mxCell>
        <mxCell id="kz_fisih0gHzWFzimF2A-19" style="edgeStyle=orthogonalEdgeStyle;rounded=0;orthogonalLoop=1;jettySize=auto;html=1;" edge="1" parent="kz_fisih0gHzWFzimF2A-3" source="kz_fisih0gHzWFzimF2A-11">
          <mxGeometry relative="1" as="geometry">
            <mxPoint x="-90" y="265" as="targetPoint" />
          </mxGeometry>
        </mxCell>
        <mxCell id="kz_fisih0gHzWFzimF2A-11" value="registro de novos membros" style="ellipse;html=1;whiteSpace=wrap;" vertex="1" parent="kz_fisih0gHzWFzimF2A-3">
          <mxGeometry x="270" y="240" width="120" height="50" as="geometry" />
        </mxCell>
        <mxCell id="NDWhkWRIr2c21j6MOvhy-1" value="sistema" style="shape=umlActor;verticalLabelPosition=bottom;verticalAlign=top;html=1;" vertex="1" parent="1">
          <mxGeometry x="90" y="320" width="30" height="60" as="geometry" />
        </mxCell>
      </root>
    </mxGraphModel>
  </diagram>
  <diagram id="bKW7DQMuO5TVTZ6wROYq" name="Página-3">
    <mxGraphModel dx="1050" dy="565" grid="1" gridSize="10" guides="1" tooltips="1" connect="1" arrows="1" fold="1" page="1" pageScale="1" pageWidth="827" pageHeight="1169" math="0" shadow="0">
      <root>
        <mxCell id="0" />
        <mxCell id="1" parent="0" />
        <mxCell id="MaWoG1_1-bgUmKnZsjKf-1" value="Diagram Heading" style="shape=umlFrame;whiteSpace=wrap;html=1;pointerEvents=0;recursiveResize=0;container=1;collapsible=0;width=160;" vertex="1" parent="1">
          <mxGeometry x="240" y="90" width="460" height="380" as="geometry" />
        </mxCell>
        <mxCell id="jlYM0x86qUi-wY8ldYqG-9" style="edgeStyle=orthogonalEdgeStyle;rounded=0;orthogonalLoop=1;jettySize=auto;html=1;" edge="1" parent="MaWoG1_1-bgUmKnZsjKf-1" source="MaWoG1_1-bgUmKnZsjKf-6">
          <mxGeometry relative="1" as="geometry">
            <mxPoint x="-50" y="340" as="targetPoint" />
          </mxGeometry>
        </mxCell>
        <mxCell id="MaWoG1_1-bgUmKnZsjKf-6" value="navegar pelos produtos" style="ellipse;html=1;whiteSpace=wrap;" vertex="1" parent="MaWoG1_1-bgUmKnZsjKf-1">
          <mxGeometry x="30" y="310" width="116" height="60" as="geometry" />
        </mxCell>
        <mxCell id="jlYM0x86qUi-wY8ldYqG-10" style="edgeStyle=orthogonalEdgeStyle;rounded=0;orthogonalLoop=1;jettySize=auto;html=1;" edge="1" parent="MaWoG1_1-bgUmKnZsjKf-1" source="MaWoG1_1-bgUmKnZsjKf-7">
          <mxGeometry relative="1" as="geometry">
            <mxPoint x="-50" y="300" as="targetPoint" />
          </mxGeometry>
        </mxCell>
        <mxCell id="MaWoG1_1-bgUmKnZsjKf-7" value="adicionar itens ao carrinho" style="ellipse;html=1;whiteSpace=wrap;" vertex="1" parent="MaWoG1_1-bgUmKnZsjKf-1">
          <mxGeometry x="164" y="270" width="126" height="60" as="geometry" />
        </mxCell>
        <mxCell id="jlYM0x86qUi-wY8ldYqG-11" style="edgeStyle=orthogonalEdgeStyle;rounded=0;orthogonalLoop=1;jettySize=auto;html=1;" edge="1" parent="MaWoG1_1-bgUmKnZsjKf-1" source="MaWoG1_1-bgUmKnZsjKf-8">
          <mxGeometry relative="1" as="geometry">
            <mxPoint x="-50" y="243" as="targetPoint" />
            <Array as="points">
              <mxPoint x="120" y="243" />
              <mxPoint x="120" y="244" />
            </Array>
          </mxGeometry>
        </mxCell>
        <mxCell id="MaWoG1_1-bgUmKnZsjKf-8" value="checkout e pagamento" style="ellipse;html=1;whiteSpace=wrap;" vertex="1" parent="MaWoG1_1-bgUmKnZsjKf-1">
          <mxGeometry x="290" y="215" width="120" height="55" as="geometry" />
        </mxCell>
        <mxCell id="jlYM0x86qUi-wY8ldYqG-1" style="edgeStyle=orthogonalEdgeStyle;rounded=0;orthogonalLoop=1;jettySize=auto;html=1;" edge="1" parent="MaWoG1_1-bgUmKnZsjKf-1" source="MaWoG1_1-bgUmKnZsjKf-10">
          <mxGeometry relative="1" as="geometry">
            <mxPoint x="-50" y="90" as="targetPoint" />
            <Array as="points">
              <mxPoint x="-50" y="90" />
            </Array>
          </mxGeometry>
        </mxCell>
        <mxCell id="MaWoG1_1-bgUmKnZsjKf-10" value="gerenciar catálogo" style="ellipse;html=1;whiteSpace=wrap;" vertex="1" parent="MaWoG1_1-bgUmKnZsjKf-1">
          <mxGeometry x="200" y="70" width="120" height="50" as="geometry" />
        </mxCell>
        <mxCell id="jlYM0x86qUi-wY8ldYqG-7" style="edgeStyle=orthogonalEdgeStyle;rounded=0;orthogonalLoop=1;jettySize=auto;html=1;" edge="1" parent="MaWoG1_1-bgUmKnZsjKf-1" source="MaWoG1_1-bgUmKnZsjKf-11">
          <mxGeometry relative="1" as="geometry">
            <mxPoint x="-50" y="45" as="targetPoint" />
            <Array as="points">
              <mxPoint x="-39" y="45" />
            </Array>
          </mxGeometry>
        </mxCell>
        <mxCell id="MaWoG1_1-bgUmKnZsjKf-11" value="processar pedidos" style="ellipse;html=1;whiteSpace=wrap;" vertex="1" parent="MaWoG1_1-bgUmKnZsjKf-1">
          <mxGeometry x="320" y="20" width="120" height="50" as="geometry" />
        </mxCell>
        <mxCell id="jlYM0x86qUi-wY8ldYqG-4" style="edgeStyle=orthogonalEdgeStyle;rounded=0;orthogonalLoop=1;jettySize=auto;html=1;" edge="1" parent="MaWoG1_1-bgUmKnZsjKf-1" source="MaWoG1_1-bgUmKnZsjKf-13">
          <mxGeometry relative="1" as="geometry">
            <mxPoint x="-50" y="135" as="targetPoint" />
          </mxGeometry>
        </mxCell>
        <mxCell id="MaWoG1_1-bgUmKnZsjKf-13" value="gerar relatórios" style="ellipse;html=1;whiteSpace=wrap;" vertex="1" parent="MaWoG1_1-bgUmKnZsjKf-1">
          <mxGeometry x="60" y="110" width="125" height="50" as="geometry" />
        </mxCell>
        <mxCell id="MaWoG1_1-bgUmKnZsjKf-2" value="administrador" style="shape=umlActor;verticalLabelPosition=bottom;verticalAlign=top;html=1;" vertex="1" parent="1">
          <mxGeometry x="130" y="150" width="30" height="60" as="geometry" />
        </mxCell>
        <mxCell id="MaWoG1_1-bgUmKnZsjKf-3" value="cliente" style="shape=umlActor;verticalLabelPosition=bottom;verticalAlign=top;html=1;" vertex="1" parent="1">
          <mxGeometry x="100" y="340" width="30" height="60" as="geometry" />
        </mxCell>
        <mxCell id="jlYM0x86qUi-wY8ldYqG-14" style="edgeStyle=orthogonalEdgeStyle;rounded=0;orthogonalLoop=1;jettySize=auto;html=1;exitX=0.5;exitY=0.5;exitDx=0;exitDy=0;exitPerimeter=0;entryX=0.453;entryY=0.377;entryDx=0;entryDy=0;entryPerimeter=0;" edge="1" parent="1" source="MaWoG1_1-bgUmKnZsjKf-3" target="MaWoG1_1-bgUmKnZsjKf-3">
          <mxGeometry relative="1" as="geometry" />
        </mxCell>
        <mxCell id="nVgROhs-GqyUOjKxupsJ-1" value="sistema" style="shape=umlActor;verticalLabelPosition=bottom;verticalAlign=top;html=1;" vertex="1" parent="1">
          <mxGeometry x="20" y="150" width="30" height="60" as="geometry" />
        </mxCell>
        <mxCell id="nVgROhs-GqyUOjKxupsJ-4" value="equipe" style="shape=umlActor;verticalLabelPosition=bottom;verticalAlign=top;html=1;" vertex="1" parent="1">
          <mxGeometry x="70" y="150" width="30" height="60" as="geometry" />
        </mxCell>
      </root>
    </mxGraphModel>
  </diagram>
  <diagram id="wMNziEi1YMveaYENdIZB" name="Página-4">
    <mxGraphModel dx="1050" dy="565" grid="1" gridSize="10" guides="1" tooltips="1" connect="1" arrows="1" fold="1" page="1" pageScale="1" pageWidth="827" pageHeight="1169" math="0" shadow="0">
      <root>
        <mxCell id="0" />
        <mxCell id="1" parent="0" />
        <mxCell id="T5r3HRLxJFjORdNMmSLY-1" value="Diagram Heading" style="shape=umlFrame;whiteSpace=wrap;html=1;pointerEvents=0;recursiveResize=0;container=1;collapsible=0;width=160;" vertex="1" parent="1">
          <mxGeometry x="220" y="40" width="490" height="400" as="geometry" />
        </mxCell>
        <mxCell id="QEIZWTAcIcc-3cl_299W-10" style="edgeStyle=orthogonalEdgeStyle;rounded=0;orthogonalLoop=1;jettySize=auto;html=1;" edge="1" parent="T5r3HRLxJFjORdNMmSLY-1" source="T5r3HRLxJFjORdNMmSLY-7">
          <mxGeometry relative="1" as="geometry">
            <mxPoint x="-30" y="105" as="targetPoint" />
          </mxGeometry>
        </mxCell>
        <mxCell id="T5r3HRLxJFjORdNMmSLY-7" value="&lt;div&gt;automatizar processos&lt;/div&gt;&lt;div&gt;administrativos e acadêmicos&lt;/div&gt;" style="ellipse;html=1;whiteSpace=wrap;" vertex="1" parent="T5r3HRLxJFjORdNMmSLY-1">
          <mxGeometry x="60" y="70" width="155" height="70" as="geometry" />
        </mxCell>
        <mxCell id="QEIZWTAcIcc-3cl_299W-17" style="edgeStyle=orthogonalEdgeStyle;rounded=0;orthogonalLoop=1;jettySize=auto;html=1;" edge="1" parent="T5r3HRLxJFjORdNMmSLY-1">
          <mxGeometry relative="1" as="geometry">
            <mxPoint x="360" y="270" as="sourcePoint" />
            <mxPoint x="-30" y="330" as="targetPoint" />
            <Array as="points">
              <mxPoint x="360" y="330" />
              <mxPoint x="300" y="330" />
            </Array>
          </mxGeometry>
        </mxCell>
        <mxCell id="QEIZWTAcIcc-3cl_299W-6" value="matrícula de novos alunos," style="ellipse;html=1;whiteSpace=wrap;" vertex="1" parent="T5r3HRLxJFjORdNMmSLY-1">
          <mxGeometry x="280" y="190" width="160" height="70" as="geometry" />
        </mxCell>
        <mxCell id="QEIZWTAcIcc-3cl_299W-12" style="edgeStyle=orthogonalEdgeStyle;rounded=0;orthogonalLoop=1;jettySize=auto;html=1;" edge="1" parent="T5r3HRLxJFjORdNMmSLY-1" source="QEIZWTAcIcc-3cl_299W-5">
          <mxGeometry relative="1" as="geometry">
            <mxPoint x="-40" y="180" as="targetPoint" />
          </mxGeometry>
        </mxCell>
        <mxCell id="QEIZWTAcIcc-3cl_299W-18" style="edgeStyle=orthogonalEdgeStyle;rounded=0;orthogonalLoop=1;jettySize=auto;html=1;" edge="1" parent="T5r3HRLxJFjORdNMmSLY-1" source="QEIZWTAcIcc-3cl_299W-5">
          <mxGeometry relative="1" as="geometry">
            <mxPoint x="140" y="330" as="targetPoint" />
          </mxGeometry>
        </mxCell>
        <mxCell id="QEIZWTAcIcc-3cl_299W-5" value="registro de notas" style="ellipse;html=1;whiteSpace=wrap;" vertex="1" parent="T5r3HRLxJFjORdNMmSLY-1">
          <mxGeometry x="60" y="190" width="160" height="65" as="geometry" />
        </mxCell>
        <mxCell id="QEIZWTAcIcc-3cl_299W-9" style="edgeStyle=orthogonalEdgeStyle;rounded=0;orthogonalLoop=1;jettySize=auto;html=1;" edge="1" parent="T5r3HRLxJFjORdNMmSLY-1" source="QEIZWTAcIcc-3cl_299W-4" target="T5r3HRLxJFjORdNMmSLY-7">
          <mxGeometry relative="1" as="geometry" />
        </mxCell>
        <mxCell id="QEIZWTAcIcc-3cl_299W-4" value="&lt;div&gt;gerenciamento de&lt;/div&gt;&lt;div&gt;turmas&lt;/div&gt;" style="ellipse;html=1;whiteSpace=wrap;" vertex="1" parent="T5r3HRLxJFjORdNMmSLY-1">
          <mxGeometry x="280" y="70" width="180" height="70" as="geometry" />
        </mxCell>
        <mxCell id="QEIZWTAcIcc-3cl_299W-11" style="edgeStyle=orthogonalEdgeStyle;rounded=0;orthogonalLoop=1;jettySize=auto;html=1;entryX=0.938;entryY=0.538;entryDx=0;entryDy=0;entryPerimeter=0;" edge="1" parent="T5r3HRLxJFjORdNMmSLY-1" source="QEIZWTAcIcc-3cl_299W-6" target="QEIZWTAcIcc-3cl_299W-5">
          <mxGeometry relative="1" as="geometry" />
        </mxCell>
        <mxCell id="QEIZWTAcIcc-3cl_299W-15" style="edgeStyle=orthogonalEdgeStyle;rounded=0;orthogonalLoop=1;jettySize=auto;html=1;entryX=0.484;entryY=0.154;entryDx=0;entryDy=0;entryPerimeter=0;" edge="1" parent="T5r3HRLxJFjORdNMmSLY-1" source="T5r3HRLxJFjORdNMmSLY-7" target="QEIZWTAcIcc-3cl_299W-5">
          <mxGeometry relative="1" as="geometry" />
        </mxCell>
        <mxCell id="QEIZWTAcIcc-3cl_299W-16" style="edgeStyle=orthogonalEdgeStyle;rounded=0;orthogonalLoop=1;jettySize=auto;html=1;entryX=0.558;entryY=-0.014;entryDx=0;entryDy=0;entryPerimeter=0;" edge="1" parent="T5r3HRLxJFjORdNMmSLY-1" source="QEIZWTAcIcc-3cl_299W-4" target="QEIZWTAcIcc-3cl_299W-6">
          <mxGeometry relative="1" as="geometry" />
        </mxCell>
        <mxCell id="T5r3HRLxJFjORdNMmSLY-3" value="diretor" style="shape=umlActor;verticalLabelPosition=bottom;verticalAlign=top;html=1;" vertex="1" parent="1">
          <mxGeometry x="120" y="120" width="30" height="60" as="geometry" />
        </mxCell>
        <mxCell id="T5r3HRLxJFjORdNMmSLY-4" value="aluno" style="shape=umlActor;verticalLabelPosition=bottom;verticalAlign=top;html=1;" vertex="1" parent="1">
          <mxGeometry x="120" y="330" width="30" height="60" as="geometry" />
        </mxCell>
        <mxCell id="QEIZWTAcIcc-3cl_299W-1" value="sistema" style="shape=umlActor;verticalLabelPosition=bottom;verticalAlign=top;html=1;" vertex="1" parent="1">
          <mxGeometry x="20" y="120" width="30" height="60" as="geometry" />
        </mxCell>
        <mxCell id="QEIZWTAcIcc-3cl_299W-2" value="secretaria" style="shape=umlActor;verticalLabelPosition=bottom;verticalAlign=top;html=1;" vertex="1" parent="1">
          <mxGeometry x="70" y="120" width="30" height="60" as="geometry" />
        </mxCell>
      </root>
    </mxGraphModel>
  </diagram>
</mxfile>
